<?xml version="1.0" standalone="no"?><!DOCTYPE svg PUBLIC "-//W3C//DTD SVG 1.1//EN" "http://www.w3.org/Graphics/SVG/1.1/DTD/svg11.dtd"><svg t="1633412576579" class="icon" viewBox="0 0 1024 1024" version="1.1" xmlns="http://www.w3.org/2000/svg" p-id="1387" xmlns:xlink="http://www.w3.org/1999/xlink" width="200" height="200"><defs><style type="text/css"></style></defs><path d="M854.97173333 399.86353493c-40.73171627 0-75.677696 24.77370027-90.59259733 60.07466667H261.76279893c-14.91490133-35.3009664-49.86088107-60.07466667-90.59259733-60.07466667-54.29220693 0-98.304 44.01179307-98.304 98.304s44.01179307 98.304 98.304 98.304c40.73171627 0 75.677696-24.77370027 90.59259733-60.07466666H764.379136c14.91490133 35.3009664 49.86088107 60.07466667 90.59259733 60.07466666 54.29220693 0 98.304-44.01179307 98.304-98.304s-44.01179307-98.304-98.304-98.304z m-683.802624 136.53333334c-21.11351467 0-38.22933333-17.11581867-38.22933333-38.22933334s17.11581867-38.22933333 38.22933333-38.22933333 38.22933333 17.11581867 38.22933334 38.22933333-17.11581867 38.22933333-38.22933334 38.22933334z m683.802624 0c-21.11351467 0-38.22933333-17.11581867-38.22933333-38.22933334s17.11581867-38.22933333 38.22933333-38.22933333 38.22933333 17.11581867 38.22933334 38.22933333-17.11581867 38.22933333-38.22933334 38.22933334z" fill="#e6e6e6" p-id="1388"></path></svg>